<?xml version="1.0" standalone="no"?>
<!DOCTYPE svg PUBLIC "-//W3C//DTD SVG 20010904//EN"
 "http://www.w3.org/TR/2001/REC-SVG-20010904/DTD/svg10.dtd">
<svg version="1.0" xmlns="http://www.w3.org/2000/svg"
 width="1139.000000pt" height="1139.000000pt" viewBox="0 0 1139.000000 1139.000000"
 preserveAspectRatio="xMidYMid meet">
<metadata>
Created by potrace 1.14, written by Peter Selinger 2001-2017
</metadata>
<g transform="translate(0.000000,1139.000000) scale(0.100000,-0.100000)"
fill="#000000" stroke="none">
<path d="M5300 10920 c-359 -32 -720 -136 -1090 -314 -52 -25 -100 -46 -107
-46 -7 0 -16 -6 -20 -14 -4 -7 -45 -36 -90 -64 -198 -124 -286 -195 -468 -377
-141 -141 -188 -194 -256 -289 -30 -42 -61 -66 -175 -134 -688 -412 -1274
-1001 -1696 -1702 -672 -1117 -878 -2488 -562 -3744 19 -76 33 -140 31 -142
-7 -8 -91 59 -174 139 -46 44 -116 123 -155 174 -39 51 -74 93 -77 93 -33 0
-38 -59 -17 -190 24 -143 64 -241 150 -368 31 -46 56 -86 56 -88 0 -3 -27 -3
-61 1 -181 16 -294 82 -445 258 -46 52 -53 55 -83 30 -48 -41 -65 -226 -35
-384 55 -293 222 -492 492 -589 34 -13 62 -26 62 -31 0 -32 -172 -21 -261 16
-88 37 -103 37 -107 1 -3 -25 6 -39 62 -92 176 -169 433 -293 698 -338 107
-19 343 -22 448 -6 48 7 66 6 71 -3 4 -7 48 -70 98 -142 1059 -1512 2861
-2313 4691 -2085 1398 174 2652 930 3461 2085 50 72 94 136 99 144 6 11 19 12
71 3 198 -34 444 -21 635 33 103 29 274 111 389 187 102 68 225 189 225 223 0
36 -15 39 -74 11 -96 -46 -296 -71 -296 -37 0 4 30 18 67 31 37 13 107 50 156
83 144 96 233 223 308 437 32 90 33 102 34 235 0 126 -2 144 -22 182 -40 74
-72 66 -149 -39 -42 -57 -148 -137 -235 -177 -67 -32 -177 -54 -215 -45 -21 6
-21 8 21 67 95 138 167 330 180 485 7 74 6 81 -13 91 -18 10 -31 -2 -127 -117
-111 -132 -235 -250 -306 -290 -37 -21 -40 -22 -35 -5 22 73 80 322 101 438
198 1073 43 2165 -444 3138 -415 830 -1063 1535 -1848 2012 -172 105 -186 115
-212 166 -74 141 -234 346 -342 438 -81 68 -206 150 -284 186 -110 49 -119 53
-220 81 -90 26 -115 29 -260 29 -150 0 -165 -2 -236 -27 -41 -16 -80 -28 -85
-28 -5 0 -21 26 -36 58 -60 127 -185 211 -413 276 -222 64 -617 98 -875 76z
m3240 -1904 c444 -355 845 -822 1125 -1311 636 -1106 777 -2469 384 -3697
l-41 -127 -47 -10 c-109 -23 -238 -34 -426 -36 -110 -1 -205 -3 -212 -4 -26
-3 -24 -41 3 -76 34 -46 34 -100 -2 -189 -69 -173 -203 -305 -309 -306 -11 0
-27 -5 -35 -10 -12 -7 -10 -16 15 -50 23 -32 42 -46 82 -59 31 -11 74 -37 108
-67 98 -86 148 -123 227 -170 47 -29 75 -51 71 -58 -27 -44 -144 -201 -224
-301 -247 -308 -541 -591 -859 -827 -1096 -814 -2513 -1093 -3851 -758 -1024
256 -1942 871 -2574 1725 -45 60 -90 122 -99 137 l-18 27 44 22 c75 38 171
106 248 175 41 36 95 75 120 87 l45 21 -31 6 c-85 18 -149 97 -225 277 -73
173 -93 310 -53 355 44 49 44 48 -98 42 -147 -7 -355 7 -487 34 l-84 17 -29
85 c-226 672 -291 1460 -177 2175 155 979 623 1882 1330 2570 128 125 338 309
345 303 2 -2 -17 -56 -42 -119 -154 -388 -269 -823 -339 -1284 -21 -140 -36
-197 -80 -320 -59 -165 -116 -386 -141 -540 -25 -158 -30 -494 -9 -656 31
-245 103 -484 210 -700 74 -148 135 -243 303 -474 80 -110 161 -221 179 -247
l33 -46 -49 -17 c-106 -35 -216 -127 -296 -247 l-37 -56 16 -93 c9 -51 16
-108 16 -126 0 -37 -23 -89 -41 -95 -22 -7 19 -35 61 -42 93 -15 176 -109 240
-271 43 -108 49 -174 21 -213 -11 -17 -21 -39 -21 -50 0 -12 42 -64 105 -129
l106 -109 121 17 c207 30 346 67 492 133 l58 27 -6 -93 c-4 -51 -9 -114 -12
-141 l-6 -47 -46 41 c-50 44 -114 78 -148 79 -40 0 -43 -15 -37 -174 11 -284
-45 -529 -163 -708 -49 -73 -139 -169 -186 -198 l-31 -19 34 -6 c75 -14 195
48 301 157 92 93 156 212 190 351 17 69 25 87 39 87 25 0 61 -51 104 -145 59
-131 71 -149 114 -178 73 -50 159 -37 231 35 l33 32 16 -23 c9 -14 27 -50 40
-80 33 -78 55 -107 109 -138 38 -22 59 -28 107 -28 71 1 101 15 173 84 44 43
54 48 59 34 38 -109 116 -247 177 -312 99 -105 215 -105 331 1 l56 51 16 -24
c39 -59 138 -141 211 -176 l77 -37 -65 -65 c-114 -114 -166 -245 -158 -392 11
-188 144 -305 385 -339 91 -12 168 -5 262 26 98 33 175 85 226 155 59 80 79
151 72 253 -8 129 -35 186 -134 285 -46 46 -82 84 -81 85 117 51 178 97 228
177 20 31 39 49 51 49 11 0 41 -20 67 -44 26 -24 71 -56 101 -71 73 -37 159
-33 219 9 64 44 142 168 196 314 15 39 31 72 34 72 4 0 18 -16 31 -36 30 -43
97 -84 140 -84 50 0 111 64 171 180 28 55 54 102 59 105 5 3 18 -11 29 -30 25
-42 59 -52 109 -32 40 16 75 68 119 175 13 31 27 58 32 60 6 2 22 -30 37 -70
76 -203 114 -275 190 -359 70 -78 179 -149 230 -149 40 0 32 25 -38 118 -95
126 -186 322 -223 479 -8 34 -19 130 -24 214 -12 179 -23 230 -57 263 -28 28
-57 35 -94 23 -33 -10 -37 -18 -103 -207 -29 -85 -64 -177 -76 -205 l-22 -50
-38 44 c-28 32 -45 44 -66 44 -35 0 -54 -24 -106 -128 -57 -115 -110 -204
-124 -209 -26 -10 -55 8 -99 65 -54 69 -76 83 -114 74 -60 -13 -119 -100 -186
-273 -46 -118 -129 -195 -187 -173 -24 9 -85 71 -128 129 -26 35 -67 62 -94
62 -25 0 -84 -59 -162 -161 -87 -115 -131 -155 -220 -198 -37 -18 -84 -44
-106 -57 l-38 -24 -67 30 c-179 81 -295 184 -358 315 -37 78 -61 101 -97 89
-12 -3 -61 -44 -110 -90 -101 -96 -122 -103 -170 -52 -40 43 -69 95 -119 218
-33 78 -55 117 -89 152 -69 71 -112 64 -195 -32 -86 -100 -111 -122 -131 -116
-11 3 -51 59 -94 133 -156 264 -189 279 -270 124 -59 -112 -74 -114 -131 -14
l-31 54 6 412 c4 227 9 444 12 484 l6 72 73 -87 c93 -111 265 -279 380 -372
121 -98 438 -309 499 -332 140 -54 514 -84 906 -74 232 5 543 27 609 42 131
30 201 67 388 201 171 122 270 209 417 369 l102 110 12 -155 c20 -265 57 -458
89 -468 10 -4 32 52 47 120 16 70 36 314 36 435 0 72 4 132 8 132 4 0 15 -13
24 -28 26 -44 143 -167 196 -206 126 -92 283 -145 437 -147 93 -1 95 -1 137
34 24 19 84 62 134 95 116 77 124 92 72 141 -28 26 -32 37 -36 93 -10 160 104
388 231 461 45 26 71 34 139 42 23 3 46 9 50 13 4 4 -1 36 -11 71 -15 57 -16
72 -5 125 12 59 12 62 -11 92 -85 111 -235 226 -339 260 -28 9 -53 18 -55 20
-1 1 31 41 72 87 244 274 390 555 496 955 102 386 131 541 138 757 7 198 -6
366 -48 660 -75 529 -163 829 -364 1245 -57 118 -122 258 -145 310 -62 139
-176 411 -185 440 l-8 24 39 -29 c22 -16 73 -56 114 -89z m-2080 -482 c-17
-79 -97 -343 -129 -425 -66 -172 -191 -388 -313 -540 -82 -103 -238 -275 -268
-296 -36 -25 -21 -33 60 -33 187 0 385 70 638 227 202 124 354 251 489 408
101 116 265 354 323 467 19 38 38 68 43 68 4 0 7 -26 7 -57 0 -131 57 -421
126 -643 57 -181 107 -298 234 -545 176 -343 236 -519 247 -727 3 -65 7 -118
9 -118 1 0 28 14 59 30 101 53 144 38 191 -65 69 -150 79 -472 21 -700 -13
-55 -28 -122 -31 -150 -24 -174 -63 -226 -202 -268 -93 -28 -119 -46 -147
-102 -16 -34 -47 -198 -77 -420 -33 -236 -73 -364 -163 -520 -57 -98 -223
-293 -406 -476 -233 -233 -366 -339 -660 -528 -110 -71 -120 -75 -230 -97
-167 -34 -506 -48 -846 -35 -337 14 -399 25 -539 97 -365 187 -750 507 -1052
876 -186 227 -230 341 -299 773 -41 261 -49 292 -83 327 -23 26 -31 28 -96 26
-78 -1 -127 17 -147 53 -6 12 -19 46 -30 77 -11 32 -46 97 -79 147 -110 168
-123 228 -95 435 10 69 21 190 24 270 5 119 10 152 26 179 28 47 65 72 117 78
73 8 127 -27 207 -137 l33 -45 -5 105 c-11 220 27 421 105 560 68 121 184 226
362 328 100 57 141 71 850 288 518 158 649 207 808 305 126 77 319 211 413
288 179 145 388 372 474 514 19 31 36 55 38 53 2 -2 -1 -25 -7 -52z m-607
-6897 c92 -63 144 -196 117 -297 -42 -158 -293 -213 -422 -92 -83 77 -72 259
23 367 46 52 81 66 161 62 58 -2 73 -7 121 -40z"/>
<path d="M2103 4413 c-12 -27 -17 -69 -17 -143 -1 -100 1 -109 32 -172 38 -77
71 -108 116 -108 35 0 76 24 76 45 0 7 -20 51 -44 97 -24 46 -54 117 -66 158
-53 176 -67 193 -97 123z"/>
<path d="M9178 4283 c-113 -110 -148 -157 -148 -197 0 -39 7 -48 50 -75 78
-47 133 -11 190 124 27 65 34 94 34 155 1 105 -12 104 -126 -7z"/>
<path d="M2691 3374 c-18 -15 -85 -50 -149 -79 -127 -56 -147 -74 -119 -102
17 -17 61 -21 120 -11 13 2 24 -12 42 -56 66 -161 152 -230 223 -180 32 22 28
44 -24 121 -47 69 -83 138 -84 160 0 6 16 30 36 54 28 34 34 49 32 78 -4 46
-30 51 -77 15z"/>
<path d="M8530 3360 c-28 -28 -25 -42 15 -90 47 -56 54 -99 25 -164 -83 -189
-85 -208 -21 -214 70 -7 151 71 187 182 29 87 41 104 83 116 76 20 116 76 72
100 -11 5 -41 10 -68 10 -70 0 -157 23 -203 54 -47 31 -64 32 -90 6z"/>
<path d="M6978 7169 c-20 -4 -116 -38 -212 -74 -183 -68 -315 -105 -377 -105
-20 0 -58 -10 -85 -22 -56 -24 -194 -152 -194 -179 0 -10 -4 -20 -9 -24 -16
-10 -71 -131 -71 -157 0 -22 26 -88 35 -88 2 0 1 9 -2 20 -3 11 -2 36 1 55 9
47 116 137 184 155 78 20 160 49 317 115 285 119 317 129 430 128 183 -1 360
-78 507 -221 45 -44 60 -54 70 -44 16 16 -1 81 -51 187 -61 129 -172 235 -247
235 -23 0 -25 -2 -14 -15 9 -11 -12 -7 -70 15 -86 31 -141 36 -212 19z"/>
<path d="M4065 7133 c-11 -2 -30 -6 -42 -8 -12 -3 -28 -11 -35 -18 -7 -7 -41
-28 -75 -46 -82 -44 -131 -87 -191 -168 -119 -162 -110 -185 33 -87 61 41 144
92 185 112 l74 37 256 -1 256 -1 173 -77 c193 -87 240 -103 326 -112 33 -4 69
-11 80 -17 11 -6 29 -10 40 -10 16 1 16 1 3 -3 -23 -7 -23 -4 13 -65 48 -82
55 -140 30 -239 -11 -46 -19 -85 -17 -87 2 -2 30 28 62 66 32 39 63 71 69 71
32 0 100 -170 125 -312 20 -114 31 -127 51 -55 26 96 -21 389 -77 474 -8 13
-11 23 -7 23 14 0 -54 63 -107 98 -30 20 -63 44 -74 53 -10 10 -60 38 -111 63
-51 25 -128 72 -172 103 -125 90 -145 103 -161 103 -12 0 -12 -3 -2 -15 7 -9
-34 7 -91 35 -110 53 -229 85 -237 62 -5 -16 -79 -15 -172 2 -91 17 -178 25
-205 19z"/>
<path d="M6615 6801 c-14 -6 12 -10 80 -13 109 -5 229 -40 369 -109 106 -52
251 -198 223 -226 -3 -3 -30 16 -59 41 -62 54 -248 149 -386 196 -170 57 -293
61 -447 15 -48 -14 -146 -70 -153 -87 -2 -5 -10 -15 -18 -22 -19 -19 6 -29 33
-13 172 100 276 124 415 96 84 -17 86 -18 63 -37 -41 -34 -55 -65 -55 -122 0
-36 6 -65 19 -86 17 -27 28 -33 86 -44 36 -7 89 -10 118 -7 44 4 56 10 84 42
25 29 33 48 33 77 0 21 2 38 5 38 13 0 105 -51 105 -58 0 -5 -13 -21 -30 -37
-34 -32 -33 -40 1 -26 13 5 32 12 43 15 15 5 16 9 6 21 -20 24 49 -5 99 -42
51 -38 66 -42 51 -12 -6 11 -8 33 -5 49 21 94 -160 253 -370 326 -75 26 -271
42 -310 25z m216 -247 c9 -11 10 -20 2 -32 -13 -22 -43 -22 -56 -1 -24 38 25
68 54 33z"/>
<path d="M4640 6734 c-254 -13 -420 -56 -528 -137 -42 -32 -129 -143 -135
-173 -4 -20 -1 -20 48 12 38 23 55 30 63 22 8 -8 9 -5 6 9 -4 15 6 30 36 55
49 42 150 98 196 108 l33 8 -13 -27 c-8 -15 -17 -44 -21 -64 -16 -86 61 -189
151 -203 167 -25 293 126 224 268 -11 23 -18 43 -16 45 5 5 121 -22 161 -37
33 -13 134 -96 142 -118 4 -8 -4 -23 -18 -34 -22 -17 -22 -18 -2 -9 71 35 44
109 -62 173 -30 18 -55 37 -55 41 -1 22 157 -29 210 -68 40 -30 60 -22 28 12
-78 83 -245 127 -448 117z m-104 -199 c9 -23 -15 -55 -42 -55 -17 0 -28 8 -36
26 -11 23 -10 29 11 45 18 15 27 16 42 8 11 -6 22 -16 25 -24z"/>
<path d="M6325 6540 c-7 -11 20 -25 140 -75 73 -30 199 -74 213 -75 2 0 -3 6
-11 14 -8 8 -39 22 -68 32 -30 9 -73 28 -96 41 -22 13 -51 26 -63 28 -12 2
-38 13 -57 25 -38 22 -49 24 -58 10z"/>
<path d="M4920 6440 c-9 -6 -10 -10 -3 -10 6 0 15 5 18 10 8 12 4 12 -15 0z"/>
<path d="M4040 6432 c0 -5 7 -13 16 -16 10 -4 14 -1 12 6 -5 15 -28 23 -28 10z"/>
<path d="M4115 6420 c10 -11 20 -20 23 -20 3 0 -3 9 -13 20 -10 11 -20 20 -23
20 -3 0 3 -9 13 -20z"/>
<path d="M4820 6383 c-24 -15 -80 -39 -125 -54 -87 -30 -91 -37 -8 -15 48 13
183 80 183 91 0 7 -2 7 -50 -22z"/>
<path d="M4150 6392 c0 -12 80 -55 87 -48 4 3 2 6 -4 6 -6 0 -27 11 -47 25
-20 13 -36 21 -36 17z"/>
<path d="M5161 5468 c-1 -69 27 -148 70 -201 66 -80 138 -89 257 -32 41 19 81
35 91 35 9 0 36 -10 61 -22 100 -46 224 -52 299 -14 38 20 78 20 124 1 41 -17
100 -20 126 -5 21 11 37 42 18 34 -9 -3 -11 7 -9 36 5 48 -15 83 -59 106 -47
24 -91 11 -136 -40 -48 -55 -75 -68 -134 -69 -37 -1 -57 6 -89 28 -24 16 -47
39 -53 52 -15 34 -136 93 -190 93 -37 0 -53 -7 -96 -41 -53 -42 -63 -62 -59
-114 3 -25 -1 -31 -20 -33 -28 -4 -95 37 -118 73 -11 17 -17 46 -17 83 0 43
-2 51 -8 33 -12 -30 -31 -22 -46 20 -12 34 -12 34 -12 -23z"/>
<path d="M5508 4512 c-90 -22 -287 -123 -528 -270 -8 -6 -11 -13 -7 -18 5 -5
27 2 50 15 122 68 267 134 392 177 l140 48 318 9 c381 11 389 10 565 -81 80
-41 127 -61 134 -54 24 24 -187 147 -297 173 -74 17 -698 18 -767 1z"/>
</g>
</svg>
